<svg width="24" height="25" viewBox="0 0 24 25" fill="none" xmlns="http://www.w3.org/2000/svg">
<path d="M21 10.4023H3M16 2.40234V6.40234M8 2.40234V6.40234M7.8 22.4023H16.2C17.8802 22.4023 18.7202 22.4023 19.362 22.0754C19.9265 21.7877 20.3854 21.3288 20.673 20.7643C21 20.1226 21 19.2825 21 17.6023V9.20234C21 7.52219 21 6.68211 20.673 6.04037C20.3854 5.47589 19.9265 5.01694 19.362 4.72932C18.7202 4.40234 17.8802 4.40234 16.2 4.40234H7.8C6.11984 4.40234 5.27976 4.40234 4.63803 4.72932C4.07354 5.01694 3.6146 5.47589 3.32698 6.04037C3 6.68211 3 7.52219 3 9.20234V17.6023C3 19.2825 3 20.1226 3.32698 20.7643C3.6146 21.3288 4.07354 21.7877 4.63803 22.0754C5.27976 22.4023 6.11984 22.4023 7.8 22.4023Z" stroke="white" stroke-width="2" stroke-linecap="round" stroke-linejoin="round"/>
</svg>
