<svg width="758" height="240" viewBox="0 0 758 240" fill="none" xmlns="http://www.w3.org/2000/svg">
<g opacity="0.7">
<g opacity="0.7">
<mask id="path-1-outside-1_15805_93595" maskUnits="userSpaceOnUse" x="0" y="35" width="756" height="150" fill="black">
<rect fill="white" y="35" width="756" height="150"/>
<path d="M26.4 60H3.4V40H71.4V60H48.4V180H26.4V60ZM113.07 182C102.27 182 94.0036 178.933 88.2703 172.8C82.537 166.667 79.6703 158 79.6703 146.8V73.2C79.6703 62 82.537 53.3333 88.2703 47.2C94.0036 41.0667 102.27 38 113.07 38C123.87 38 132.137 41.0667 137.87 47.2C143.604 53.3333 146.47 62 146.47 73.2V146.8C146.47 158 143.604 166.667 137.87 172.8C132.137 178.933 123.87 182 113.07 182ZM113.07 162C120.67 162 124.47 157.4 124.47 148.2V71.8C124.47 62.6 120.67 58 113.07 58C105.47 58 101.67 62.6 101.67 71.8V148.2C101.67 157.4 105.47 162 113.07 162ZM161.348 40H193.748C204.682 40 212.882 42.9333 218.348 48.8C223.815 54.6667 226.548 63.2667 226.548 74.6V88.4C226.548 99.7333 223.815 108.333 218.348 114.2C212.882 120.067 204.682 123 193.748 123H183.348V180H161.348V40ZM193.748 103C197.348 103 200.015 102 201.748 100C203.615 98 204.548 94.6 204.548 89.8V73.2C204.548 68.4 203.615 65 201.748 63C200.015 61 197.348 60 193.748 60H183.348V103H193.748ZM301.728 182C290.928 182 282.728 179 277.128 173C271.661 167 268.928 158.4 268.928 147.2V135.8H289.728V148.2C289.728 157.4 293.528 162 301.128 162C304.861 162 307.661 160.867 309.528 158.6C311.528 156.2 312.528 152.067 312.528 146.2V134.8C312.528 128.4 311.395 123.867 309.128 121.2C306.861 118.4 303.195 117 298.128 117H290.728V97H298.728C303.128 97 306.395 95.8667 308.528 93.6C310.795 91.3333 311.928 87.5333 311.928 82.2V72C311.928 67.2 310.928 63.6667 308.928 61.4C306.928 59.1333 304.261 58 300.928 58C293.861 58 290.328 62.3333 290.328 71V80.2H269.528V72.8C269.528 61.6 272.261 53 277.728 47C283.328 41 291.328 38 301.728 38C312.261 38 320.261 41 325.728 47C331.195 52.8667 333.928 61.4 333.928 72.6V77.6C333.928 85.2 332.661 91.3333 330.128 96C327.595 100.533 323.661 103.8 318.328 105.8V106.2C324.061 108.333 328.195 111.8 330.728 116.6C333.261 121.4 334.528 127.533 334.528 135V147.4C334.528 158.6 331.728 167.2 326.128 173.2C320.661 179.067 312.528 182 301.728 182ZM414.638 182C403.971 182 395.838 179 390.238 173C384.638 166.867 381.838 158.133 381.838 146.8V40H403.837V148.4C403.837 153.2 404.771 156.667 406.638 158.8C408.638 160.933 411.438 162 415.038 162C418.638 162 421.371 160.933 423.238 158.8C425.238 156.667 426.238 153.2 426.238 148.4V40H447.438V146.8C447.438 158.133 444.638 166.867 439.038 173C433.438 179 425.304 182 414.638 182ZM491.706 182C481.04 182 472.973 179 467.506 173C462.04 166.867 459.306 158.133 459.306 146.8V138.8H480.106V148.4C480.106 157.467 483.906 162 491.506 162C495.24 162 498.04 160.933 499.906 158.8C501.906 156.533 502.906 152.933 502.906 148C502.906 142.133 501.573 137 498.906 132.6C496.24 128.067 491.306 122.667 484.106 116.4C475.04 108.4 468.706 101.2 465.106 94.8C461.506 88.2667 459.706 80.9333 459.706 72.8C459.706 61.7333 462.506 53.2 468.106 47.2C473.706 41.0667 481.84 38 492.506 38C503.04 38 510.973 41.0667 516.306 47.2C521.773 53.2 524.506 61.8667 524.506 73.2V79H503.706V71.8C503.706 67 502.773 63.5333 500.906 61.4C499.04 59.1333 496.306 58 492.706 58C485.373 58 481.706 62.4667 481.706 71.4C481.706 76.4667 483.04 81.2 485.706 85.6C488.506 90 493.506 95.3333 500.706 101.6C509.906 109.6 516.24 116.867 519.706 123.4C523.173 129.933 524.906 137.6 524.906 146.4C524.906 157.867 522.04 166.667 516.306 172.8C510.706 178.933 502.506 182 491.706 182ZM537.52 40H597.52V60H559.52V97H589.72V117H559.52V160H597.52V180H537.52V40ZM610.177 40H642.777C654.11 40 662.377 42.6667 667.577 48C672.777 53.2 675.377 61.2667 675.377 72.2V80.8C675.377 95.3333 670.577 104.533 660.977 108.4V108.8C666.31 110.4 670.043 113.667 672.177 118.6C674.443 123.533 675.577 130.133 675.577 138.4V163C675.577 167 675.71 170.267 675.977 172.8C676.243 175.2 676.91 177.6 677.977 180H655.577C654.777 177.733 654.243 175.6 653.977 173.6C653.71 171.6 653.577 168 653.577 162.8V137.2C653.577 130.8 652.51 126.333 650.377 123.8C648.377 121.267 644.843 120 639.777 120H632.177V180H610.177V40ZM640.177 100C644.577 100 647.843 98.8667 649.977 96.6C652.243 94.3333 653.377 90.5333 653.377 85.2V74.4C653.377 69.3333 652.443 65.6667 650.577 63.4C648.843 61.1333 646.043 60 642.177 60H632.177V100H640.177ZM719.441 182C708.774 182 700.707 179 695.241 173C689.774 166.867 687.041 158.133 687.041 146.8V138.8H707.841V148.4C707.841 157.467 711.641 162 719.241 162C722.974 162 725.774 160.933 727.641 158.8C729.641 156.533 730.641 152.933 730.641 148C730.641 142.133 729.307 137 726.641 132.6C723.974 128.067 719.041 122.667 711.841 116.4C702.774 108.4 696.441 101.2 692.841 94.8C689.241 88.2667 687.441 80.9333 687.441 72.8C687.441 61.7333 690.241 53.2 695.841 47.2C701.441 41.0667 709.574 38 720.241 38C730.774 38 738.707 41.0667 744.041 47.2C749.507 53.2 752.241 61.8667 752.241 73.2V79H731.441V71.8C731.441 67 730.507 63.5333 728.641 61.4C726.774 59.1333 724.041 58 720.441 58C713.107 58 709.441 62.4667 709.441 71.4C709.441 76.4667 710.774 81.2 713.441 85.6C716.241 90 721.241 95.3333 728.441 101.6C737.641 109.6 743.974 116.867 747.441 123.4C750.907 129.933 752.641 137.6 752.641 146.4C752.641 157.867 749.774 166.667 744.041 172.8C738.441 178.933 730.241 182 719.441 182Z"/>
</mask>
<path d="M26.4 60H29.4V57H26.4V60ZM3.4 60H0.4V63H3.4V60ZM3.4 40V37H0.4V40H3.4ZM71.4 40H74.4V37H71.4V40ZM71.4 60V63H74.4V60H71.4ZM48.4 60V57H45.4V60H48.4ZM48.4 180V183H51.4V180H48.4ZM26.4 180H23.4V183H26.4V180ZM26.4 57H3.4V63H26.4V57ZM6.4 60V40H0.4V60H6.4ZM3.4 43H71.4V37H3.4V43ZM68.4 40V60H74.4V40H68.4ZM71.4 57H48.4V63H71.4V57ZM45.4 60V180H51.4V60H45.4ZM48.4 177H26.4V183H48.4V177ZM29.4 180V60H23.4V180H29.4ZM88.2703 172.8L90.4619 170.751L88.2703 172.8ZM88.2703 47.2L90.4619 49.2486L88.2703 47.2ZM137.87 47.2L135.679 49.2486L137.87 47.2ZM137.87 172.8L135.679 170.751L137.87 172.8ZM113.07 179C102.85 179 95.4764 176.116 90.4619 170.751L86.0787 174.849C92.5309 181.751 101.691 185 113.07 185V179ZM90.4619 170.751C85.4017 165.338 82.6703 157.499 82.6703 146.8H76.6703C76.6703 158.501 79.6722 167.995 86.0787 174.849L90.4619 170.751ZM82.6703 146.8V73.2H76.6703V146.8H82.6703ZM82.6703 73.2C82.6703 62.5009 85.4017 54.6618 90.4619 49.2486L86.0787 45.1513C79.6722 52.0048 76.6703 61.4991 76.6703 73.2H82.6703ZM90.4619 49.2486C95.4764 43.8843 102.85 41 113.07 41V35C101.691 35 92.5309 38.249 86.0787 45.1513L90.4619 49.2486ZM113.07 41C123.291 41 130.664 43.8843 135.679 49.2486L140.062 45.1513C133.61 38.249 124.45 35 113.07 35V41ZM135.679 49.2486C140.739 54.6618 143.47 62.5009 143.47 73.2H149.47C149.47 61.4991 146.468 52.0048 140.062 45.1513L135.679 49.2486ZM143.47 73.2V146.8H149.47V73.2H143.47ZM143.47 146.8C143.47 157.499 140.739 165.338 135.679 170.751L140.062 174.849C146.468 167.995 149.47 158.501 149.47 146.8H143.47ZM135.679 170.751C130.664 176.116 123.291 179 113.07 179V185C124.45 185 133.61 181.751 140.062 174.849L135.679 170.751ZM113.07 165C117.5 165 121.313 163.632 123.933 160.461C126.462 157.399 127.47 153.138 127.47 148.2H121.47C121.47 152.462 120.578 155.101 119.307 156.639C118.127 158.068 116.241 159 113.07 159V165ZM127.47 148.2V71.8H121.47V148.2H127.47ZM127.47 71.8C127.47 66.8622 126.462 62.6009 123.933 59.5394C121.313 56.3681 117.5 55 113.07 55V61C116.241 61 118.127 61.9319 119.307 63.3606C120.578 64.8991 121.47 67.5378 121.47 71.8H127.47ZM113.07 55C108.641 55 104.827 56.3681 102.207 59.5394C99.6783 62.6009 98.6703 66.8622 98.6703 71.8H104.67C104.67 67.5378 105.562 64.8991 106.833 63.3606C108.013 61.9319 109.9 61 113.07 61V55ZM98.6703 71.8V148.2H104.67V71.8H98.6703ZM98.6703 148.2C98.6703 153.138 99.6783 157.399 102.207 160.461C104.827 163.632 108.641 165 113.07 165V159C109.9 159 108.013 158.068 106.833 156.639C105.562 155.101 104.67 152.462 104.67 148.2H98.6703ZM161.348 40V37H158.348V40H161.348ZM218.348 48.8L216.154 50.8452L218.348 48.8ZM218.348 114.2L216.154 112.155L218.348 114.2ZM183.348 123V120H180.348V123H183.348ZM183.348 180V183H186.348V180H183.348ZM161.348 180H158.348V183H161.348V180ZM201.748 100L199.555 97.953L199.518 97.9934L199.481 98.0352L201.748 100ZM201.748 63L199.481 64.9648L199.518 65.0065L199.555 65.0469L201.748 63ZM183.348 60V57H180.348V60H183.348ZM183.348 103H180.348V106H183.348V103ZM161.348 43H193.748V37H161.348V43ZM193.748 43C204.163 43 211.438 45.7841 216.154 50.8452L220.543 46.7548C214.326 40.0825 205.201 37 193.748 37V43ZM216.154 50.8452C220.923 55.963 223.548 63.7118 223.548 74.6H229.548C229.548 62.8216 226.708 53.3703 220.543 46.7548L216.154 50.8452ZM223.548 74.6V88.4H229.548V74.6H223.548ZM223.548 88.4C223.548 99.2882 220.923 107.037 216.154 112.155L220.543 116.245C226.708 109.63 229.548 100.178 229.548 88.4H223.548ZM216.154 112.155C211.438 117.216 204.163 120 193.748 120V126C205.201 126 214.326 122.917 220.543 116.245L216.154 112.155ZM193.748 120H183.348V126H193.748V120ZM180.348 123V180H186.348V123H180.348ZM183.348 177H161.348V183H183.348V177ZM164.348 180V40H158.348V180H164.348ZM193.748 106C197.889 106 201.527 104.836 204.016 101.965L199.481 98.0352C198.503 99.1643 196.807 100 193.748 100V106ZM203.942 102.047C206.599 99.2001 207.548 94.8353 207.548 89.8H201.548C201.548 94.3647 200.632 96.7999 199.555 97.953L203.942 102.047ZM207.548 89.8V73.2H201.548V89.8H207.548ZM207.548 73.2C207.548 68.1647 206.599 63.7999 203.942 60.953L199.555 65.0469C200.632 66.2001 201.548 68.6353 201.548 73.2H207.548ZM204.016 61.0352C201.527 58.1643 197.889 57 193.748 57V63C196.807 63 198.503 63.8357 199.481 64.9648L204.016 61.0352ZM193.748 57H183.348V63H193.748V57ZM180.348 60V103H186.348V60H180.348ZM183.348 106H193.748V100H183.348V106ZM277.128 173L274.911 175.02L274.923 175.034L274.935 175.047L277.128 173ZM268.928 135.8V132.8H265.928V135.8H268.928ZM289.728 135.8H292.728V132.8H289.728V135.8ZM309.528 158.6L307.223 156.679L307.218 156.686L307.212 156.693L309.528 158.6ZM309.128 121.2L306.796 123.088L306.819 123.116L306.842 123.143L309.128 121.2ZM290.728 117H287.728V120H290.728V117ZM290.728 97V94H287.728V97H290.728ZM308.528 93.6L306.407 91.4787L306.375 91.5108L306.344 91.5439L308.528 93.6ZM308.928 61.4L311.178 59.4151V59.4151L308.928 61.4ZM290.328 80.2V83.2H293.328V80.2H290.328ZM269.528 80.2H266.528V83.2H269.528V80.2ZM277.728 47L275.535 44.953L275.523 44.9662L275.511 44.9795L277.728 47ZM325.728 47L323.511 49.0205L323.522 49.0329L323.533 49.0452L325.728 47ZM330.128 96L332.747 97.4635L332.756 97.4474L332.765 97.4313L330.128 96ZM318.328 105.8L317.275 102.991L315.328 103.721V105.8H318.328ZM318.328 106.2H315.328V108.285L317.282 109.012L318.328 106.2ZM330.728 116.6L328.075 118L330.728 116.6ZM326.128 173.2L323.935 171.153L323.933 171.155L326.128 173.2ZM301.728 179C291.484 179 284.19 176.169 279.321 170.953L274.935 175.047C281.266 181.831 290.372 185 301.728 185V179ZM279.346 170.98C274.546 165.712 271.928 157.938 271.928 147.2H265.928C265.928 158.862 268.776 168.288 274.911 175.02L279.346 170.98ZM271.928 147.2V135.8H265.928V147.2H271.928ZM268.928 138.8H289.728V132.8H268.928V138.8ZM286.728 135.8V148.2H292.728V135.8H286.728ZM286.728 148.2C286.728 153.138 287.736 157.399 290.265 160.461C292.885 163.632 296.699 165 301.128 165V159C297.958 159 296.071 158.068 294.891 156.639C293.62 155.101 292.728 152.462 292.728 148.2H286.728ZM301.128 165C305.494 165 309.259 163.647 311.844 160.507L307.212 156.693C306.064 158.087 304.229 159 301.128 159V165ZM311.833 160.521C314.536 157.277 315.528 152.23 315.528 146.2H309.528C309.528 151.903 308.521 155.123 307.223 156.679L311.833 160.521ZM315.528 146.2V134.8H309.528V146.2H315.528ZM315.528 134.8C315.528 128.211 314.394 122.763 311.414 119.257L306.842 123.143C308.396 124.97 309.528 128.589 309.528 134.8H315.528ZM311.46 119.312C308.419 115.555 303.714 114 298.128 114V120C302.675 120 305.304 121.245 306.796 123.088L311.46 119.312ZM298.128 114H290.728V120H298.128V114ZM293.728 117V97H287.728V117H293.728ZM290.728 100H298.728V94H290.728V100ZM298.728 100C303.606 100 307.811 98.7393 310.713 95.6561L306.344 91.5439C304.979 92.994 302.65 94 298.728 94V100ZM310.649 95.7213C313.754 92.6168 314.928 87.8292 314.928 82.2H308.928C308.928 87.2374 307.836 90.0499 306.407 91.4787L310.649 95.7213ZM314.928 82.2V72H308.928V82.2H314.928ZM314.928 72C314.928 66.8765 313.876 62.4732 311.178 59.4151L306.679 63.3849C307.98 64.8601 308.928 67.5235 308.928 72H314.928ZM311.178 59.4151C308.546 56.4323 305.023 55 300.928 55V61C303.5 61 305.311 61.8344 306.679 63.3849L311.178 59.4151ZM300.928 55C296.752 55 293.135 56.3102 290.653 59.3542C288.267 62.2811 287.328 66.336 287.328 71H293.328C293.328 66.9974 294.156 64.5523 295.303 63.1458C296.354 61.8565 298.037 61 300.928 61V55ZM287.328 71V80.2H293.328V71H287.328ZM290.328 77.2H269.528V83.2H290.328V77.2ZM272.528 80.2V72.8H266.528V80.2H272.528ZM272.528 72.8C272.528 62.0617 275.146 54.288 279.946 49.0205L275.511 44.9795C269.376 51.712 266.528 61.1383 266.528 72.8H272.528ZM279.921 49.047C284.811 43.8083 291.923 41 301.728 41V35C290.733 35 281.846 38.1917 275.535 44.953L279.921 49.047ZM301.728 41C311.683 41 318.77 43.8171 323.511 49.0205L327.946 44.9795C321.753 38.1828 312.84 35 301.728 35V41ZM323.533 49.0452C328.308 54.1689 330.928 61.8564 330.928 72.6H336.928C336.928 60.9436 334.082 51.5644 327.923 44.9548L323.533 49.0452ZM330.928 72.6V77.6H336.928V72.6H330.928ZM330.928 77.6C330.928 84.9022 329.706 90.4902 327.492 94.5687L332.765 97.4313C335.617 92.1765 336.928 85.4977 336.928 77.6H330.928ZM327.509 94.5365C325.357 98.3888 322.013 101.214 317.275 102.991L319.382 108.609C325.31 106.386 329.833 102.678 332.747 97.4635L327.509 94.5365ZM315.328 105.8V106.2H321.328V105.8H315.328ZM317.282 109.012C322.419 110.923 325.93 113.936 328.075 118L333.381 115.2C330.46 109.664 325.704 105.744 319.374 103.388L317.282 109.012ZM328.075 118C330.311 122.237 331.528 127.847 331.528 135H337.528C337.528 127.219 336.212 120.563 333.381 115.2L328.075 118ZM331.528 135V147.4H337.528V135H331.528ZM331.528 147.4C331.528 158.121 328.852 165.885 323.935 171.153L328.321 175.247C334.604 168.515 337.528 159.079 337.528 147.4H331.528ZM323.933 171.155C319.211 176.223 311.996 179 301.728 179V185C313.06 185 322.112 181.91 328.323 175.245L323.933 171.155ZM390.237 173L388.022 175.023L388.033 175.035L388.044 175.047L390.237 173ZM381.837 40V37H378.837V40H381.837ZM403.837 40H406.837V37H403.837V40ZM406.638 158.8L404.38 160.776L404.414 160.814L404.449 160.852L406.638 158.8ZM423.238 158.8L421.049 156.748L421.014 156.786L420.98 156.824L423.238 158.8ZM426.237 40V37H423.237V40H426.237ZM447.438 40H450.438V37H447.438V40ZM439.038 173L441.231 175.047L441.242 175.035L441.253 175.023L439.038 173ZM414.638 179C404.54 179 397.306 176.177 392.431 170.953L388.044 175.047C394.369 181.823 403.402 185 414.638 185V179ZM392.453 170.977C387.517 165.571 384.837 157.661 384.837 146.8H378.837C378.837 158.606 381.758 168.162 388.022 175.023L392.453 170.977ZM384.837 146.8V40H378.837V146.8H384.837ZM381.837 43H403.837V37H381.837V43ZM400.837 40V148.4H406.837V40H400.837ZM400.837 148.4C400.837 153.462 401.798 157.825 404.38 160.776L408.895 156.824C407.743 155.508 406.837 152.938 406.837 148.4H400.837ZM404.449 160.852C407.143 163.725 410.814 165 415.038 165V159C412.061 159 410.132 158.141 408.826 156.748L404.449 160.852ZM415.038 165C419.252 165 422.912 163.727 425.495 160.776L420.98 156.824C419.829 158.139 418.023 159 415.038 159V165ZM425.426 160.852C428.195 157.899 429.237 153.501 429.237 148.4H423.237C423.237 152.899 422.28 155.435 421.049 156.748L425.426 160.852ZM429.237 148.4V40H423.237V148.4H429.237ZM426.237 43H447.438V37H426.237V43ZM444.438 40V146.8H450.438V40H444.438ZM444.438 146.8C444.438 157.661 441.758 165.571 436.822 170.977L441.253 175.023C447.517 168.162 450.438 158.606 450.438 146.8H444.438ZM436.844 170.953C431.969 176.177 424.735 179 414.638 179V185C425.873 185 434.906 181.823 441.231 175.047L436.844 170.953ZM467.506 173L465.267 174.996L465.278 175.008L465.289 175.02L467.506 173ZM459.306 138.8V135.8H456.306V138.8H459.306ZM480.106 138.8H483.106V135.8H480.106V138.8ZM499.906 158.8L497.657 156.815L497.649 156.824L499.906 158.8ZM498.906 132.6L496.32 134.121L496.33 134.138L496.341 134.155L498.906 132.6ZM484.106 116.4L482.121 118.65L482.129 118.656L482.137 118.663L484.106 116.4ZM465.106 94.8L462.479 96.2478L462.485 96.2593L462.492 96.2708L465.106 94.8ZM468.106 47.2L470.299 49.2469L470.311 49.2349L470.322 49.2228L468.106 47.2ZM516.306 47.2L514.042 49.1685L514.065 49.1948L514.089 49.2205L516.306 47.2ZM524.506 79V82H527.506V79H524.506ZM503.706 79H500.706V82H503.706V79ZM500.906 61.4L498.59 63.3071L498.619 63.3417L498.649 63.3755L500.906 61.4ZM485.706 85.6L483.141 87.1549L483.158 87.1829L483.175 87.2106L485.706 85.6ZM500.706 101.6L498.737 103.863L498.738 103.864L500.706 101.6ZM519.706 123.4L517.056 124.806L519.706 123.4ZM516.306 172.8L514.115 170.751L514.103 170.764L514.091 170.777L516.306 172.8ZM491.706 179C481.604 179 474.458 176.175 469.724 170.98L465.289 175.02C471.488 181.825 480.475 185 491.706 185V179ZM469.746 171.004C464.928 165.598 462.306 157.677 462.306 146.8H456.306C456.306 158.589 459.151 168.135 465.267 174.996L469.746 171.004ZM462.306 146.8V138.8H456.306V146.8H462.306ZM459.306 141.8H480.106V135.8H459.306V141.8ZM477.106 138.8V148.4H483.106V138.8H477.106ZM477.106 148.4C477.106 153.279 478.118 157.498 480.657 160.527C483.282 163.658 487.091 165 491.506 165V159C488.321 159 486.431 158.075 485.255 156.673C483.995 155.169 483.106 152.587 483.106 148.4H477.106ZM491.506 165C495.814 165 499.561 163.751 502.164 160.776L497.649 156.824C496.518 158.116 494.665 159 491.506 159V165ZM502.156 160.785C504.865 157.715 505.906 153.231 505.906 148H499.906C499.906 152.635 498.948 155.352 497.657 156.815L502.156 160.785ZM505.906 148C505.906 141.664 504.461 135.977 501.472 131.045L496.341 134.155C498.685 138.023 499.906 142.603 499.906 148H505.906ZM501.492 131.079C498.579 126.126 493.355 120.473 486.076 114.137L482.137 118.663C489.257 124.861 493.901 130.007 496.32 134.121L501.492 131.079ZM486.091 114.15C477.135 106.248 471.084 99.3079 467.721 93.3292L462.492 96.2708C466.329 103.092 472.944 110.552 482.121 118.65L486.091 114.15ZM467.734 93.3522C464.4 87.3016 462.706 80.4739 462.706 72.8H456.706C456.706 81.3927 458.613 89.2317 462.479 96.2478L467.734 93.3522ZM462.706 72.8C462.706 62.2236 465.376 54.5216 470.299 49.2469L465.913 45.153C459.636 51.8784 456.706 61.243 456.706 72.8H462.706ZM470.322 49.2228C475.202 43.878 482.428 41 492.506 41V35C481.251 35 472.211 38.2554 465.891 45.1772L470.322 49.2228ZM492.506 41C502.446 41 509.437 43.8724 514.042 49.1685L518.57 45.2315C512.509 38.2609 503.634 35 492.506 35V41ZM514.089 49.2205C518.883 54.4821 521.506 62.3173 521.506 73.2H527.506C527.506 61.416 524.663 51.9179 518.524 45.1795L514.089 49.2205ZM521.506 73.2V79H527.506V73.2H521.506ZM524.506 76H503.706V82H524.506V76ZM506.706 79V71.8H500.706V79H506.706ZM506.706 71.8C506.706 66.7375 505.745 62.3745 503.164 59.4245L498.649 63.3755C499.801 64.6921 500.706 67.2625 500.706 71.8H506.706ZM503.222 59.4929C500.658 56.3791 496.98 55 492.706 55V61C495.632 61 497.421 61.8876 498.59 63.3071L503.222 59.4929ZM492.706 55C488.404 55 484.688 56.3389 482.137 59.4465C479.68 62.4408 478.706 66.599 478.706 71.4H484.706C484.706 67.2677 485.566 64.7259 486.775 63.2535C487.891 61.8944 489.675 61 492.706 61V55ZM478.706 71.4C478.706 77.0238 480.194 82.2937 483.141 87.1549L488.272 84.0451C485.885 80.1063 484.706 75.9095 484.706 71.4H478.706ZM483.175 87.2106C486.209 91.9775 491.468 97.5362 498.737 103.863L502.676 99.3371C495.545 93.1305 490.804 88.0225 488.237 83.9894L483.175 87.2106ZM498.738 103.864C507.816 111.758 513.838 118.741 517.056 124.806L522.356 121.994C518.641 114.992 511.996 107.442 502.675 99.3362L498.738 103.864ZM517.056 124.806C520.253 130.831 521.906 137.998 521.906 146.4H527.906C527.906 137.202 526.093 129.035 522.356 121.994L517.056 124.806ZM521.906 146.4C521.906 157.388 519.164 165.35 514.115 170.751L518.498 174.849C524.916 167.983 527.906 158.345 527.906 146.4H521.906ZM514.091 170.777C509.218 176.114 501.931 179 491.706 179V185C503.081 185 512.195 181.752 518.522 174.823L514.091 170.777ZM537.52 40V37H534.52V40H537.52ZM597.52 40H600.52V37H597.52V40ZM597.52 60V63H600.52V60H597.52ZM559.52 60V57H556.52V60H559.52ZM559.52 97H556.52V100H559.52V97ZM589.72 97H592.72V94H589.72V97ZM589.72 117V120H592.72V117H589.72ZM559.52 117V114H556.52V117H559.52ZM559.52 160H556.52V163H559.52V160ZM597.52 160H600.52V157H597.52V160ZM597.52 180V183H600.52V180H597.52ZM537.52 180H534.52V183H537.52V180ZM537.52 43H597.52V37H537.52V43ZM594.52 40V60H600.52V40H594.52ZM597.52 57H559.52V63H597.52V57ZM556.52 60V97H562.52V60H556.52ZM559.52 100H589.72V94H559.52V100ZM586.72 97V117H592.72V97H586.72ZM589.72 114H559.52V120H589.72V114ZM556.52 117V160H562.52V117H556.52ZM559.52 163H597.52V157H559.52V163ZM594.52 160V180H600.52V160H594.52ZM597.52 177H537.52V183H597.52V177ZM540.52 180V40H534.52V180H540.52ZM610.177 40V37H607.177V40H610.177ZM667.577 48L665.429 50.0943L665.442 50.1079L665.455 50.1213L667.577 48ZM660.977 108.4L659.856 105.617L657.977 106.374V108.4H660.977ZM660.977 108.8H657.977V111.032L660.115 111.673L660.977 108.8ZM672.177 118.6L669.423 119.791L669.436 119.822L669.451 119.853L672.177 118.6ZM675.977 172.8L672.993 173.114L672.994 173.123L672.995 173.131L675.977 172.8ZM677.977 180V183H682.593L680.718 178.782L677.977 180ZM655.577 180L652.748 180.998L653.454 183H655.577V180ZM650.377 123.8L648.022 125.659L648.051 125.696L648.082 125.732L650.377 123.8ZM632.177 120V117H629.177V120H632.177ZM632.177 180V183H635.177V180H632.177ZM610.177 180H607.177V183H610.177V180ZM649.977 96.6L647.855 94.4787L647.823 94.5108L647.792 94.5439L649.977 96.6ZM650.577 63.4L648.193 65.2224L648.226 65.2653L648.261 65.3071L650.577 63.4ZM632.177 60V57H629.177V60H632.177ZM632.177 100H629.177V103H632.177V100ZM610.177 43H642.777V37H610.177V43ZM642.777 43C653.717 43 661.029 45.5822 665.429 50.0943L669.725 45.9057C663.724 39.7511 654.503 37 642.777 37V43ZM665.455 50.1213C669.869 54.5355 672.377 61.6782 672.377 72.2H678.377C678.377 60.8551 675.684 51.8645 669.698 45.8787L665.455 50.1213ZM672.377 72.2V80.8H678.377V72.2H672.377ZM672.377 80.8C672.377 87.7658 671.222 93.1775 669.117 97.2123C667.046 101.181 663.991 103.952 659.856 105.617L662.097 111.183C667.562 108.982 671.707 105.219 674.436 99.9877C677.131 94.8225 678.377 88.3675 678.377 80.8H672.377ZM657.977 108.4V108.8H663.977V108.4H657.977ZM660.115 111.673C664.635 113.03 667.655 115.703 669.423 119.791L674.93 117.409C672.431 111.63 667.985 107.77 661.839 105.927L660.115 111.673ZM669.451 119.853C671.467 124.242 672.577 130.361 672.577 138.4H678.577C678.577 129.906 677.419 122.825 674.903 117.347L669.451 119.853ZM672.577 138.4V163H678.577V138.4H672.577ZM672.577 163C672.577 167.053 672.711 170.435 672.993 173.114L678.96 172.486C678.709 170.098 678.577 166.947 678.577 163H672.577ZM672.995 173.131C673.298 175.863 674.054 178.561 675.235 181.218L680.718 178.782C679.766 176.639 679.188 174.537 678.958 172.469L672.995 173.131ZM677.977 177H655.577V183H677.977V177ZM658.406 179.002C657.662 176.894 657.185 174.964 656.95 173.204L651.003 173.996C651.302 176.236 651.891 178.573 652.748 180.998L658.406 179.002ZM656.95 173.204C656.713 171.426 656.577 168.011 656.577 162.8H650.577C650.577 167.989 650.707 171.774 651.003 173.996L656.95 173.204ZM656.577 162.8V137.2H650.577V162.8H656.577ZM656.577 137.2C656.577 130.661 655.526 125.258 652.671 121.868L648.082 125.732C649.494 127.409 650.577 130.938 650.577 137.2H656.577ZM652.731 121.941C649.901 118.356 645.234 117 639.777 117V123C644.452 123 646.853 124.178 648.022 125.659L652.731 121.941ZM639.777 117H632.177V123H639.777V117ZM629.177 120V180H635.177V120H629.177ZM632.177 177H610.177V183H632.177V177ZM613.177 180V40H607.177V180H613.177ZM640.177 103C645.055 103 649.259 101.739 652.161 98.6561L647.792 94.5439C646.427 95.994 644.099 97 640.177 97V103ZM652.098 98.7213C655.202 95.6168 656.377 90.8292 656.377 85.2H650.377C650.377 90.2374 649.284 93.0499 647.855 94.4787L652.098 98.7213ZM656.377 85.2V74.4H650.377V85.2H656.377ZM656.377 74.4C656.377 69.0952 655.424 64.5671 652.892 61.4929L648.261 65.3071C649.462 66.7662 650.377 69.5715 650.377 74.4H656.377ZM652.96 61.5776C650.472 58.3252 646.621 57 642.177 57V63C645.465 63 647.214 63.9415 648.193 65.2224L652.96 61.5776ZM642.177 57H632.177V63H642.177V57ZM629.177 60V100H635.177V60H629.177ZM632.177 103H640.177V97H632.177V103ZM695.241 173L693.001 174.996L693.012 175.008L693.023 175.02L695.241 173ZM687.041 138.8V135.8H684.041V138.8H687.041ZM707.841 138.8H710.841V135.8H707.841V138.8ZM727.641 158.8L725.391 156.815L725.383 156.824L727.641 158.8ZM726.641 132.6L724.055 134.121L724.065 134.138L724.075 134.155L726.641 132.6ZM711.841 116.4L709.856 118.65L709.863 118.656L709.871 118.663L711.841 116.4ZM692.841 94.8L690.213 96.2478L690.219 96.2593L690.226 96.2708L692.841 94.8ZM695.841 47.2L698.034 49.2469L698.045 49.2349L698.056 49.2228L695.841 47.2ZM744.041 47.2L741.777 49.1685L741.8 49.1948L741.823 49.2205L744.041 47.2ZM752.241 79V82H755.241V79H752.241ZM731.441 79H728.441V82H731.441V79ZM728.641 61.4L726.325 63.3071L726.353 63.3417L726.383 63.3755L728.641 61.4ZM713.441 85.6L710.875 87.1549L710.892 87.1829L710.91 87.2106L713.441 85.6ZM728.441 101.6L726.471 103.863L726.472 103.864L728.441 101.6ZM747.441 123.4L744.791 124.806L747.441 123.4ZM744.041 172.8L741.849 170.751L741.837 170.764L741.825 170.777L744.041 172.8ZM719.441 179C709.339 179 702.192 176.175 697.458 170.98L693.023 175.02C699.222 181.825 708.209 185 719.441 185V179ZM697.48 171.004C692.662 165.598 690.041 157.677 690.041 146.8H684.041C684.041 158.589 686.886 168.135 693.001 174.996L697.48 171.004ZM690.041 146.8V138.8H684.041V146.8H690.041ZM687.041 141.8H707.841V135.8H687.041V141.8ZM704.841 138.8V148.4H710.841V138.8H704.841ZM704.841 148.4C704.841 153.279 705.852 157.498 708.392 160.527C711.016 163.658 714.826 165 719.241 165V159C716.056 159 714.165 158.075 712.99 156.673C711.729 155.169 710.841 152.587 710.841 148.4H704.841ZM719.241 165C723.548 165 727.295 163.751 729.898 160.776L725.383 156.824C724.253 158.116 722.4 159 719.241 159V165ZM729.89 160.785C732.599 157.715 733.641 153.231 733.641 148H727.641C727.641 152.635 726.682 155.352 725.391 156.815L729.89 160.785ZM733.641 148C733.641 141.664 732.195 135.977 729.206 131.045L724.075 134.155C726.419 138.023 727.641 142.603 727.641 148H733.641ZM729.226 131.079C726.313 126.126 721.089 120.473 713.81 114.137L709.871 118.663C716.992 124.861 721.635 130.007 724.055 134.121L729.226 131.079ZM713.826 114.15C704.87 106.248 698.818 99.3079 695.455 93.3292L690.226 96.2708C694.063 103.092 700.678 110.552 709.856 118.65L713.826 114.15ZM695.468 93.3522C692.134 87.3016 690.441 80.4739 690.441 72.8H684.441C684.441 81.3927 686.347 89.2317 690.213 96.2478L695.468 93.3522ZM690.441 72.8C690.441 62.2236 693.111 54.5216 698.034 49.2469L693.647 45.153C687.37 51.8784 684.441 61.243 684.441 72.8H690.441ZM698.056 49.2228C702.936 43.878 710.162 41 720.241 41V35C708.986 35 699.945 38.2554 693.625 45.1772L698.056 49.2228ZM720.241 41C730.18 41 737.171 43.8724 741.777 49.1685L746.304 45.2315C740.243 38.2609 731.368 35 720.241 35V41ZM741.823 49.2205C746.617 54.4821 749.241 62.3173 749.241 73.2H755.241C755.241 61.416 752.398 51.9179 746.258 45.1795L741.823 49.2205ZM749.241 73.2V79H755.241V73.2H749.241ZM752.241 76H731.441V82H752.241V76ZM734.441 79V71.8H728.441V79H734.441ZM734.441 71.8C734.441 66.7375 733.48 62.3745 730.898 59.4245L726.383 63.3755C727.535 64.6921 728.441 67.2625 728.441 71.8H734.441ZM730.956 59.4929C728.392 56.3791 724.715 55 720.441 55V61C723.367 61 725.156 61.8876 726.325 63.3071L730.956 59.4929ZM720.441 55C716.138 55 712.423 56.3389 709.872 59.4465C707.414 62.4408 706.441 66.599 706.441 71.4H712.441C712.441 67.2677 713.301 64.7259 714.509 63.2535C715.625 61.8944 717.41 61 720.441 61V55ZM706.441 71.4C706.441 77.0238 707.929 82.2937 710.875 87.1549L716.006 84.0451C713.619 80.1063 712.441 75.9095 712.441 71.4H706.441ZM710.91 87.2106C713.943 91.9775 719.202 97.5362 726.471 103.863L730.41 99.3371C723.279 93.1305 718.538 88.0225 715.972 83.9894L710.91 87.2106ZM726.472 103.864C735.551 111.758 741.573 118.741 744.791 124.806L750.091 121.994C746.375 114.992 739.731 107.442 730.409 99.3362L726.472 103.864ZM744.791 124.806C747.988 130.831 749.641 137.998 749.641 146.4H755.641C755.641 137.202 753.827 129.035 750.091 121.994L744.791 124.806ZM749.641 146.4C749.641 157.388 746.898 165.35 741.849 170.751L746.232 174.849C752.65 167.983 755.641 158.345 755.641 146.4H749.641ZM741.825 170.777C736.952 176.114 729.665 179 719.441 179V185C730.816 185 739.929 181.752 746.256 174.823L741.825 170.777Z" fill="url(#paint0_linear_15805_93595)" mask="url(#path-1-outside-1_15805_93595)"/>
</g>
</g>
<defs>
<linearGradient id="paint0_linear_15805_93595" x1="405.785" y1="-3.12374e-06" x2="405.785" y2="233.284" gradientUnits="userSpaceOnUse">
<stop stop-color="white"/>
<stop offset="1" stop-color="white" stop-opacity="0"/>
</linearGradient>
</defs>
</svg>
