<svg width="20" height="21" viewBox="0 0 20 21" fill="none" xmlns="http://www.w3.org/2000/svg">
<path d="M6 13.6263V15.5765M10 9.72599V15.5765M14 5.82564V15.5765M5.8 19.4769H14.2C15.8802 19.4769 16.7202 19.4769 17.362 19.158C17.9265 18.8776 18.3854 18.4301 18.673 17.8796C19 17.2539 19 16.4347 19 14.7964V6.60571C19 4.96741 19 4.14826 18.673 3.52251C18.3854 2.97209 17.9265 2.52458 17.362 2.24413C16.7202 1.92529 15.8802 1.92529 14.2 1.92529H5.8C4.11984 1.92529 3.27976 1.92529 2.63803 2.24413C2.07354 2.52458 1.6146 2.97209 1.32698 3.52251C1 4.14826 1 4.96741 1 6.60571V14.7964C1 16.4347 1 17.2539 1.32698 17.8796C1.6146 18.4301 2.07354 18.8776 2.63803 19.158C3.27976 19.4769 4.11984 19.4769 5.8 19.4769Z" stroke="#F3A83B" stroke-width="2" stroke-linecap="round" stroke-linejoin="round"/>
</svg>
