<svg width="24" height="25" viewBox="0 0 24 25" fill="none" xmlns="http://www.w3.org/2000/svg">
<path d="M5 12.4023C5 8.53635 8.13401 5.40234 12 5.40234M16.4999 7.90234L11.9999 12.4023M22 12.4023C22 17.9252 17.5228 22.4023 12 22.4023C6.47715 22.4023 2 17.9252 2 12.4023C2 6.8795 6.47715 2.40234 12 2.40234C17.5228 2.40234 22 6.8795 22 12.4023ZM13 12.4023C13 12.9546 12.5523 13.4023 12 13.4023C11.4477 13.4023 11 12.9546 11 12.4023C11 11.8501 11.4477 11.4023 12 11.4023C12.5523 11.4023 13 11.8501 13 12.4023Z" stroke="black" stroke-width="2" stroke-linecap="round" stroke-linejoin="round"/>
</svg>
