<svg width="24" height="25" viewBox="0 0 24 25" fill="none" xmlns="http://www.w3.org/2000/svg">
<path d="M8 15.5829V17.5331M12 11.6825V17.5331M16 7.78218V17.5331M7.8 21.4334H16.2C17.8802 21.4334 18.7202 21.4334 19.362 21.1146C19.9265 20.8341 20.3854 20.3866 20.673 19.8362C21 19.2104 21 18.3913 21 16.753V8.56225C21 6.92395 21 6.1048 20.673 5.47906C20.3854 4.92863 19.9265 4.48112 19.362 4.20067C18.7202 3.88184 17.8802 3.88184 16.2 3.88184H7.8C6.11984 3.88184 5.27976 3.88184 4.63803 4.20067C4.07354 4.48112 3.6146 4.92863 3.32698 5.47906C3 6.1048 3 6.92395 3 8.56225V16.753C3 18.3913 3 19.2104 3.32698 19.8362C3.6146 20.3866 4.07354 20.8341 4.63803 21.1146C5.27976 21.4334 6.11984 21.4334 7.8 21.4334Z" stroke="#F3A83B" stroke-width="2" stroke-linecap="round" stroke-linejoin="round"/>
</svg>
