<svg width="18" height="16" viewBox="0 0 18 16" fill="none" xmlns="http://www.w3.org/2000/svg">
<path d="M9 13.9069L8.92496 13.8075C8.40398 13.1175 8.14349 12.7724 7.79933 12.5227C7.49464 12.3016 7.14357 12.1357 6.7662 12.0345C6.33994 11.9202 5.87033 11.9202 4.93112 11.9202H3.9C3.05992 11.9202 2.63988 11.9202 2.31901 11.7758C2.03677 11.6488 1.8073 11.4462 1.66349 11.197C1.5 10.9137 1.5 10.5428 1.5 9.80106V4.10593C1.5 3.36417 1.5 2.99329 1.66349 2.70998C1.8073 2.46077 2.03677 2.25815 2.31901 2.13117C2.63988 1.98682 3.05992 1.98682 3.9 1.98682H4.2C5.88016 1.98682 6.72024 1.98682 7.36197 2.27553C7.92646 2.52949 8.3854 2.93472 8.67302 3.43314C9 3.99977 9 4.74153 9 6.22505M9 13.9069V6.22505M9 13.9069L9.07504 13.8075C9.59602 13.1175 9.85651 12.7724 10.2007 12.5227C10.5054 12.3016 10.8564 12.1357 11.2338 12.0345C11.6601 11.9202 12.1297 11.9202 13.0689 11.9202H14.1C14.9401 11.9202 15.3601 11.9202 15.681 11.7758C15.9632 11.6488 16.1927 11.4462 16.3365 11.197C16.5 10.9137 16.5 10.5428 16.5 9.80106V4.10593C16.5 3.36417 16.5 2.99329 16.3365 2.70998C16.1927 2.46077 15.9632 2.25815 15.681 2.13117C15.3601 1.98682 14.9401 1.98682 14.1 1.98682H13.8C12.1198 1.98682 11.2798 1.98682 10.638 2.27553C10.0735 2.52949 9.6146 2.93472 9.32698 3.43314C9 3.99977 9 4.74153 9 6.22505" stroke="white" stroke-linecap="round" stroke-linejoin="round"/>
</svg>
