<svg width="57" height="36" viewBox="0 0 57 36" fill="none" xmlns="http://www.w3.org/2000/svg">
<path d="M54.8251 8.16891C54.273 7.78785 53.6025 7.54278 52.8901 7.46165C52.1776 7.38053 51.4519 7.46661 50.7958 7.71009L38.5874 12.1986L31.494 1.62573C31.1549 1.13211 30.6637 0.721608 30.0704 0.43603C29.477 0.150451 28.8027 0 28.1161 0C27.4296 0 26.7553 0.150451 26.1619 0.43603C25.5686 0.721608 25.0774 1.13211 24.7383 1.62573L17.6449 12.1986L5.43645 7.71009C4.77899 7.46697 4.05239 7.38077 3.33878 7.46123C2.62517 7.54168 1.95302 7.78559 1.3983 8.16538C0.843578 8.54516 0.428417 9.04568 0.199747 9.61035C-0.0289229 10.175 -0.061982 10.7813 0.104307 11.3607L6.23265 32.9652C6.34983 33.3834 6.5685 33.7777 6.8754 34.124C7.18229 34.4703 7.57104 34.7615 8.01807 34.98C8.62329 35.2795 9.31527 35.4381 10.0206 35.4388C10.3635 35.4383 10.7046 35.398 11.034 35.3191C22.2045 32.7656 34.0036 32.7656 45.1742 35.3191C46.1941 35.5408 47.2788 35.4189 48.1901 34.98C48.6399 34.7643 49.0307 34.474 49.338 34.1272C49.6453 33.7804 49.8624 33.3848 49.9755 32.9652L56.128 11.3607C56.2924 10.7812 56.2575 10.1751 56.0273 9.61112C55.7971 9.0471 55.3806 8.54755 54.8251 8.16891Z" fill="#00D95F"/>
<circle cx="28.6105" cy="19.6701" r="5.36441" fill="#00BD53"/>
<ellipse cx="15.1978" cy="22.3521" rx="2.6822" ry="2.68221" fill="#00BD53"/>
<ellipse cx="42.022" cy="22.3521" rx="2.6822" ry="2.68221" fill="#00BD53"/>
</svg>
