<svg width="57" height="48" viewBox="0 0 57 48" fill="none" xmlns="http://www.w3.org/2000/svg">
<path d="M54.8251 20.6855C54.273 20.3045 53.6025 20.0594 52.8901 19.9783C52.1776 19.8971 51.4519 19.9832 50.7958 20.2267L38.5874 24.7152L31.494 14.1423C31.1549 13.6487 30.6637 13.2382 30.0704 12.9526C29.477 12.6671 28.8027 12.5166 28.1161 12.5166C27.4296 12.5166 26.7553 12.6671 26.1619 12.9526C25.5686 13.2382 25.0774 13.6487 24.7383 14.1423L17.6449 24.7152L5.43645 20.2267C4.77899 19.9836 4.05239 19.8974 3.33878 19.9778C2.62517 20.0583 1.95302 20.3022 1.3983 20.682C0.843578 21.0618 0.428417 21.5623 0.199747 22.127C-0.0289229 22.6916 -0.061982 23.2979 0.104307 23.8773L6.23265 45.4818C6.34983 45.9 6.5685 46.2943 6.8754 46.6406C7.18229 46.9869 7.57104 47.2781 8.01807 47.4966C8.62329 47.7961 9.31527 47.9547 10.0206 47.9554C10.3635 47.9549 10.7046 47.9146 11.034 47.8357C22.2045 45.2822 34.0036 45.2822 45.1742 47.8357C46.1941 48.0574 47.2788 47.9355 48.1901 47.4966C48.6399 47.2809 49.0307 46.9906 49.338 46.6438C49.6453 46.297 49.8624 45.9014 49.9755 45.4818L56.128 23.8773C56.2924 23.2978 56.2575 22.6917 56.0273 22.1277C55.7971 21.5637 55.3806 21.0642 54.8251 20.6855Z" fill="#009BD6"/>
<ellipse cx="28.6096" cy="7.15254" rx="7.15254" ry="7.15254" fill="#009BD6"/>
<circle cx="28.6105" cy="32.1867" r="5.36441" fill="#047DAB"/>
<ellipse cx="15.1978" cy="34.8687" rx="2.6822" ry="2.68221" fill="#047DAB"/>
<ellipse cx="42.022" cy="34.8687" rx="2.6822" ry="2.68221" fill="#047DAB"/>
</svg>
