<svg width="34" height="27" viewBox="0 0 34 27" fill="none" xmlns="http://www.w3.org/2000/svg">
<path d="M31.6605 11.5684C31.3517 11.3553 30.9768 11.2182 30.5783 11.1729C30.1799 11.1275 29.7741 11.1756 29.4071 11.3118L22.5797 13.8219L18.6127 7.90917C18.4231 7.63312 18.1484 7.40355 17.8166 7.24385C17.4848 7.08414 17.1077 7 16.7237 7C16.3398 7 15.9627 7.08414 15.6308 7.24385C15.299 7.40355 15.0243 7.63312 14.8347 7.90917L10.8678 13.8219L4.04029 11.3118C3.67261 11.1758 3.26627 11.1276 2.86719 11.1726C2.46811 11.2176 2.09221 11.354 1.78199 11.5664C1.47176 11.7788 1.23959 12.0587 1.11171 12.3745C0.983825 12.6903 0.965337 13.0294 1.05833 13.3534L4.48556 25.4355C4.55109 25.6694 4.67338 25.8899 4.84501 26.0836C5.01664 26.2773 5.23404 26.4401 5.48404 26.5623C5.82251 26.7298 6.20949 26.8184 6.60396 26.8189C6.79572 26.8186 6.98648 26.796 7.17067 26.7519C13.4177 25.3239 20.0163 25.3239 26.2633 26.7519C26.8337 26.8759 27.4403 26.8077 27.9499 26.5623C28.2014 26.4417 28.42 26.2793 28.5919 26.0853C28.7637 25.8914 28.8851 25.6701 28.9484 25.4355L32.3891 13.3534C32.4811 13.0293 32.4615 12.6904 32.3328 12.3749C32.204 12.0595 31.9712 11.7801 31.6605 11.5684Z" fill="#FFAA00"/>
<circle cx="17" cy="4" r="4" fill="#FFAA00"/>
<circle cx="17" cy="18" r="3" fill="#BE9502"/>
<circle cx="31.5" cy="10.5" r="2.5" fill="#FFAA00"/>
<circle cx="2.5" cy="10.5" r="2.5" fill="#FFAA00"/>
<circle cx="9.5" cy="19.5" r="1.5" fill="#BE9502"/>
<circle cx="24.5" cy="19.5" r="1.5" fill="#BE9502"/>
</svg>
