<svg width="16" height="16" viewBox="0 0 16 16" fill="none" xmlns="http://www.w3.org/2000/svg">
<path d="M9.47601 4.23245H13.9413C14.2954 4.23245 14.4725 4.23245 14.576 4.30448C14.6664 4.36734 14.7252 4.46408 14.7381 4.57102C14.7529 4.69358 14.6669 4.84333 14.495 5.14285L13.4293 6.99884C13.3669 7.10746 13.3357 7.16177 13.3235 7.21928C13.3127 7.27019 13.3127 7.32269 13.3235 7.37359C13.3357 7.43111 13.3669 7.48542 13.4293 7.59404L14.495 9.45003C14.6669 9.74954 14.7529 9.8993 14.7381 10.0219C14.7252 10.1288 14.6664 10.2255 14.576 10.2884C14.4725 10.3604 14.2954 10.3604 13.9413 10.3604H8.36768C7.9243 10.3604 7.70261 10.3604 7.53327 10.2769C7.38431 10.2035 7.2632 10.0863 7.1873 9.94219C7.10101 9.77833 7.10101 9.56383 7.10101 9.13483V7.29644M4.33018 14.9564L1.16351 2.70045M2.35104 7.29644H8.20934C8.65272 7.29644 8.8744 7.29644 9.04375 7.21295C9.19271 7.13951 9.31382 7.02233 9.38972 6.8782C9.47601 6.71434 9.47601 6.49984 9.47601 6.07084V2.39405C9.47601 1.96505 9.47601 1.75055 9.38972 1.5867C9.31382 1.44257 9.19271 1.32538 9.04375 1.25195C8.8744 1.16846 8.65272 1.16846 8.20934 1.16846H2.38998C1.83698 1.16846 1.56049 1.16846 1.37137 1.27932C1.20562 1.37649 1.08246 1.52912 1.02524 1.70827C0.959947 1.91268 1.02701 2.17223 1.16114 2.69132L2.35104 7.29644Z" stroke="white" stroke-linecap="round" stroke-linejoin="round"/>
</svg>
