<svg width="13" height="13" viewBox="0 0 13 13" fill="none" xmlns="http://www.w3.org/2000/svg">
<g clip-path="url(#clip0_16010_37816)">
<path d="M0.677803 3.89088C0.296381 4.6797 0.0824432 5.56463 0.0824432 6.49957C0.0824432 7.43452 0.296381 8.31945 0.677803 9.10826L6.08244 9.63L11.4871 9.10826C11.8685 8.31945 12.0824 7.43452 12.0824 6.49957C12.0824 5.56463 11.8685 4.6797 11.4871 3.89088L6.08244 3.36914L0.677803 3.89088Z" fill="#F0F0F0"/>
<path d="M0.678101 9.10938C1.64855 11.1164 3.70376 12.5007 6.08253 12.5007C8.4613 12.5007 10.5165 11.1164 11.487 9.10938H0.678101Z" fill="#6DA544"/>
<path d="M0.678101 3.89131H11.487C10.5165 1.88434 8.46127 0.5 6.08253 0.5C3.70379 0.5 1.64855 1.88434 0.678101 3.89131Z" fill="#FF9811"/>
<path d="M6.08264 8.58746C7.23523 8.58746 8.16959 7.65311 8.16959 6.50052C8.16959 5.34793 7.23523 4.41357 6.08264 4.41357C4.93005 4.41357 3.9957 5.34793 3.9957 6.50052C3.9957 7.65311 4.93005 8.58746 6.08264 8.58746Z" fill="#FF9811"/>
</g>
<defs>
<clipPath id="clip0_16010_37816">
<rect width="12" height="12" fill="white" transform="translate(0.0826492 0.5)"/>
</clipPath>
</defs>
</svg>
