<svg width="22" height="22" viewBox="0 0 22 22" fill="none" xmlns="http://www.w3.org/2000/svg">
<g clip-path="url(#clip0_16010_37553)">
<path d="M11 21.4576C16.9254 21.4576 21.7288 16.6542 21.7288 10.7288C21.7288 4.80345 16.9254 0 11 0C5.07464 0 0.271187 4.80345 0.271187 10.7288C0.271187 16.6542 5.07464 21.4576 11 21.4576Z" fill="#F0F0F0"/>
<path d="M10.5332 10.729H21.7285C21.7285 9.76065 21.5994 8.82255 21.3589 7.93018H10.5332V10.729Z" fill="#D80027"/>
<path d="M10.5332 5.13087H20.1538C19.497 4.05916 18.6573 3.11188 17.6782 2.33203H10.5332V5.13087Z" fill="#D80027"/>
<path d="M10.9997 21.4578C13.5247 21.4578 15.8456 20.5851 17.6783 19.1255H4.32122C6.15392 20.5851 8.47474 21.4578 10.9997 21.4578Z" fill="#D80027"/>
<path d="M1.84569 16.3257H20.1539C20.6812 15.4653 21.0901 14.5249 21.359 13.5269H0.640583C0.909516 14.5249 1.31843 15.4653 1.84569 16.3257Z" fill="#D80027"/>
<path d="M5.24097 1.67546H6.21868L5.30924 2.33616L5.65663 3.40522L4.74724 2.74452L3.83785 3.40522L4.13792 2.48167C3.3372 3.14866 2.63538 3.9301 2.05703 4.80081H2.3703L1.79141 5.22137C1.70122 5.37182 1.61472 5.52467 1.53182 5.67977L1.80826 6.53058L1.29252 6.15587C1.16432 6.42748 1.04706 6.70521 0.941654 6.98873L1.24621 7.92616H2.3703L1.46087 8.58686L1.80826 9.65593L0.898864 8.99523L0.354126 9.39102C0.299601 9.82931 0.271187 10.2757 0.271187 10.7288H11C11 4.80349 11 4.10494 11 0C8.88056 0 6.90482 0.614811 5.24097 1.67546ZM5.65663 9.65593L4.74724 8.99523L3.83785 9.65593L4.18523 8.58686L3.2758 7.92616H4.39989L4.74724 6.85709L5.09458 7.92616H6.21868L5.30924 8.58686L5.65663 9.65593ZM5.30924 5.46151L5.65663 6.53058L4.74724 5.86988L3.83785 6.53058L4.18523 5.46151L3.2758 4.80081H4.39989L4.74724 3.73174L5.09458 4.80081H6.21868L5.30924 5.46151ZM9.50501 9.65593L8.59561 8.99523L7.68622 9.65593L8.03361 8.58686L7.12417 7.92616H8.24827L8.59561 6.85709L8.94296 7.92616H10.0671L9.15762 8.58686L9.50501 9.65593ZM9.15762 5.46151L9.50501 6.53058L8.59561 5.86988L7.68622 6.53058L8.03361 5.46151L7.12417 4.80081H8.24827L8.59561 3.73174L8.94296 4.80081H10.0671L9.15762 5.46151ZM9.15762 2.33616L9.50501 3.40522L8.59561 2.74452L7.68622 3.40522L8.03361 2.33616L7.12417 1.67546H8.24827L8.59561 0.606387L8.94296 1.67546H10.0671L9.15762 2.33616Z" fill="#0052B4"/>
</g>
<defs>
<clipPath id="clip0_16010_37553">
<rect width="21.4576" height="21.4576" fill="white" transform="translate(0.271187)"/>
</clipPath>
</defs>
</svg>
